HIERARCHY
ROOT Hips
{
	OFFSET 0.000000 0.000000 0.000000 
	CHANNELS 6 Xposition Yposition Zposition Zrotation Xrotation Yrotation
	JOINT Spine
	{
		OFFSET -0.000000 8.280624 0.000000 
		CHANNELS 3 Zrotation Xrotation Yrotation
		JOINT Spine1
		{
			OFFSET -0.000000 24.860672 0.000000 
			CHANNELS 3 Zrotation Xrotation Yrotation
			JOINT Neck
			{
				OFFSET -0.000000 24.758574 2.250779 
				CHANNELS 3 Zrotation Xrotation Yrotation
				JOINT Head
				{
					OFFSET -0.000000 14.137651 -2.019665 
					CHANNELS 3 Zrotation Xrotation Yrotation
					End Site
					{
						OFFSET -0.000000 25.245806 0.000000 
					}
				}
			}
			JOINT LeftShoulder
			{
				OFFSET 4.021533 22.370487 -0.301823 
				CHANNELS 3 Zrotation Xrotation Yrotation
				JOINT LeftArm
				{
					OFFSET 12.928750 0.000000 0.000000 
					CHANNELS 3 Zrotation Xrotation Yrotation
					JOINT LeftForeArm
					{
						OFFSET 29.110218 0.000000 0.000000 
						CHANNELS 3 Zrotation Xrotation Yrotation
						JOINT LeftHand
						{
							OFFSET 26.112843 0.000000 0.000000 
							CHANNELS 3 Zrotation Xrotation Yrotation
							End Site
							{
								OFFSET 15.147485 0.000000 0.000000 
							}
						}
					}
				}
			}
			JOINT RightShoulder
			{
				OFFSET -4.040554 22.370487 -0.301823 
				CHANNELS 3 Zrotation Xrotation Yrotation
				JOINT RightArm
				{
					OFFSET -12.928750 0.000000 0.000000 
					CHANNELS 3 Zrotation Xrotation Yrotation
					JOINT RightForeArm
					{
						OFFSET -29.110218 0.000000 0.000000 
						CHANNELS 3 Zrotation Xrotation Yrotation
						JOINT RightHand
						{
							OFFSET -26.112843 0.000000 0.000000 
							CHANNELS 3 Zrotation Xrotation Yrotation
							End Site
							{
								OFFSET -15.147485 0.000000 0.000000 
							}
						}
					}
				}
			}
		}
	}
	JOINT LeftUpLeg
	{
		OFFSET 10.098323 0.000000 0.000000 
		CHANNELS 3 Zrotation Xrotation Yrotation
		JOINT LeftLeg
		{
			OFFSET -0.000000 -44.180832 0.000000 
			CHANNELS 3 Zrotation Xrotation Yrotation
			JOINT LeftFoot
			{
				OFFSET -0.000000 -40.401024 0.000000 
				CHANNELS 3 Zrotation Xrotation Yrotation
				JOINT LeftToeBase
				{
					OFFSET -0.000000 -6.563910 15.147485 
					CHANNELS 3 Zrotation Xrotation Yrotation
					End Site
					{
						OFFSET -0.000000 0.000000 4.039329 
					}
				}
			}
		}
	}
	JOINT RightUpLeg
	{
		OFFSET -10.098323 0.000000 0.000000 
		CHANNELS 3 Zrotation Xrotation Yrotation
		JOINT RightLeg
		{
			OFFSET -0.000000 -44.180832 0.000000 
			CHANNELS 3 Zrotation Xrotation Yrotation
			JOINT RightFoot
			{
				OFFSET -0.000000 -40.401024 0.000000 
				CHANNELS 3 Zrotation Xrotation Yrotation
				JOINT RightToeBase
				{
					OFFSET -0.000000 -6.563910 15.147485 
					CHANNELS 3 Zrotation Xrotation Yrotation
					End Site
					{
						OFFSET -0.000000 0.000000 4.039329 
					}
				}
			}
		}
	}
}
MOTION
Frames: 6
Frame Time: 0.008333
-44.434875 93.461311 13.490486 3.342748 0.366739 101.556763 -3.081568 11.820962 -9.069918 0.713480 4.419759 -9.416515 -1.103396 18.019270 31.705381 -17.144981 -12.152578 29.039776 2.190253 0.536755 -27.653828 -12.409051 36.426865 -76.847710 -20.593843 -14.273829 -54.688263 12.255768 -24.327063 1.201769 -1.867331 5.174615 7.360178 60.167839 2.442354 13.200714 30.948082 -14.414547 87.735443 -19.428677 -41.992950 3.110919 20.420717 -7.593044 4.372391 -3.135758 27.358255 21.775330 -1.535653 12.168144 9.261903 0.000000 0.000000 0.000000 -2.736765 -10.496574 3.802629 -1.863171 29.630451 17.696482 5.774839 -6.293620 -15.358122 0.000000 0.000000 0.000000 
-44.461597 93.468987 13.803996 3.318120 0.192848 101.057549 -2.959328 12.096687 -9.108159 0.649385 4.270402 -9.445982 -1.318180 18.286793 31.864939 -17.367805 -12.509444 29.097336 2.239626 0.450667 -27.682703 -12.101549 35.840786 -77.280029 -19.824356 -14.140449 -54.405602 11.799287 -23.875729 0.084496 -1.888133 5.121888 7.315629 60.076954 1.896496 13.255173 30.723047 -14.111282 88.565414 -19.305138 -42.002975 3.726587 20.837584 -8.049046 4.304090 -3.582314 28.306511 21.244364 -1.343616 11.765803 8.651224 0.000000 0.000000 0.000000 -2.348648 -10.801768 3.918787 -1.935140 29.793219 17.940434 5.760954 -6.034019 -15.255002 0.000000 0.000000 0.000000 
-44.468357 93.458176 14.046071 3.247117 0.152720 100.557259 -2.892259 12.234583 -9.147451 0.503194 4.223172 -9.476029 -1.478091 18.286654 32.127842 -17.374781 -12.423269 29.384056 2.255584 0.279080 -27.758722 -12.053201 35.321232 -77.520035 -18.915119 -13.748198 -54.032906 11.503864 -23.048458 -0.568119 -1.934886 5.013938 7.296452 59.946545 1.543288 13.385024 30.720694 -13.899838 89.449371 -20.017624 -42.334103 4.452654 20.925226 -8.440363 4.765571 -3.469927 29.164740 19.697716 -1.463795 11.170474 8.080402 0.000000 0.000000 0.000000 -2.167366 -11.083349 3.937679 -2.022791 29.936596 18.366520 5.687308 -5.942654 -15.182561 0.000000 0.000000 0.000000 
-44.498116 93.446770 14.281741 3.155907 0.165945 100.062019 -2.901983 12.404600 -9.170327 0.375388 4.142759 -9.499330 -1.419411 18.034729 32.149048 -17.443211 -11.868020 29.478769 2.273227 0.124086 -27.834959 -11.987664 34.746872 -77.783821 -18.156002 -13.444479 -53.619991 11.111923 -22.417561 -1.741171 -1.942874 4.914243 7.272193 59.716843 0.937414 13.395070 30.719564 -13.307569 90.200188 -20.348183 -42.335476 5.312510 20.869978 -8.903394 5.613222 -3.001151 30.106026 17.391943 -1.923533 10.408126 7.379930 0.000000 0.000000 0.000000 -2.070154 -11.393373 4.385881 -1.768701 30.109467 18.155741 5.516979 -5.849514 -15.071500 0.000000 0.000000 0.000000 
-44.540714 93.438049 14.505866 3.027172 0.190666 99.569122 -2.919667 12.565663 -9.186311 0.247200 4.009337 -9.516465 -1.578128 18.144606 32.312965 -17.533836 -11.965659 29.612913 2.284706 0.020937 -27.926296 -12.038266 34.148319 -77.946808 -17.554249 -13.163460 -53.299969 11.453544 -21.861837 -2.333581 -1.932543 4.823605 7.248884 59.496975 0.446607 13.431293 30.362759 -12.838347 90.813751 -19.893393 -42.071045 6.445102 20.817408 -9.391333 5.916292 -2.976327 31.006971 15.526904 -2.394565 9.627528 7.222339 0.000000 0.000000 0.000000 -1.965005 -11.773251 4.361070 -1.756584 30.309353 18.003481 5.270581 -5.655967 -14.645037 0.000000 0.000000 0.000000 
-44.572716 93.423775 14.680195 2.895658 0.244496 99.109589 -2.861530 12.662341 -9.227566 0.019714 3.902529 -9.545779 -1.648698 18.268181 32.403801 -17.720163 -11.945246 29.666742 2.262858 -0.067864 -28.050137 -11.863024 33.743248 -78.198677 -16.529617 -13.108861 -52.976521 11.500762 -21.320217 -2.933645 -1.902542 4.742720 7.222857 59.271122 -0.181481 13.499165 30.550173 -12.341745 91.620300 -20.324579 -42.318535 7.048370 20.710115 -9.893477 5.994392 -3.179291 31.924883 14.008150 -2.883880 8.680248 6.950935 0.000000 0.000000 0.000000 -1.937512 -12.156712 4.074580 -1.960852 30.570576 18.717968 5.175516 -5.598297 -14.584451 0.000000 0.000000 0.000000 
